<?xml version="1.0" standalone="no"?>
<!DOCTYPE svg PUBLIC "-//W3C//DTD SVG 20010904//EN"
 "http://www.w3.org/TR/2001/REC-SVG-20010904/DTD/svg10.dtd">
<svg version="1.0" xmlns="http://www.w3.org/2000/svg"
 width="380.000000pt" height="380.000000pt" viewBox="0 0 380.000000 380.000000"
 preserveAspectRatio="xMidYMid meet">
<metadata>
Created by potrace 1.14, written by Peter Selinger 2001-2017
</metadata>
<g transform="translate(0.000000,380.000000) scale(0.100000,-0.100000)"
fill="#000000" stroke="none">
<path d="M375 3706 c-36 -25 -105 -77 -121 -91 -7 -5 -44 -35 -83 -65 -39 -30
-71 -60 -71 -67 0 -15 32 -33 58 -33 10 0 33 17 52 38 31 35 36 37 94 36 42 0
74 -7 102 -22 42 -21 94 -74 94 -94 0 -22 110 -145 156 -175 22 -14 25 -41 3
-27 -5 3 -8 0 -7 -8 2 -7 -3 -12 -10 -10 -6 1 -11 -4 -10 -10 2 -7 -1 -12 -7
-11 -5 0 -17 -6 -25 -15 -13 -14 -12 -15 5 -9 20 7 20 7 1 -8 -10 -8 -23 -12
-29 -8 -6 3 -7 2 -4 -4 8 -13 -42 -75 -55 -67 -4 3 -8 2 -7 -3 4 -21 -2 -34
-13 -27 -7 5 -9 2 -5 -9 4 -12 2 -14 -10 -10 -11 4 -14 3 -9 -6 9 -13 -12 -43
-24 -36 -5 3 -12 0 -16 -6 -4 -8 -3 -9 4 -5 7 4 12 2 12 -4 0 -7 -9 -14 -19
-17 -11 -3 -17 -11 -15 -18 7 -17 -33 -58 -48 -49 -7 4 -8 3 -4 -5 4 -6 12 -8
18 -5 5 4 3 -5 -7 -19 -9 -14 -22 -25 -28 -23 -7 1 -9 1 -4 -1 14 -9 7 -31
-13 -36 -11 -3 -20 -11 -20 -19 0 -10 3 -9 10 2 5 8 10 11 10 5 -1 -16 -26
-45 -33 -38 -4 3 -7 -1 -7 -11 0 -9 4 -14 10 -11 5 3 7 0 4 -9 -3 -8 -12 -17
-20 -20 -9 -3 -12 -10 -9 -16 3 -5 1 -10 -5 -10 -7 0 -10 -7 -6 -15 3 -8 1
-15 -5 -15 -6 0 -8 -4 -4 -9 3 -5 1 -12 -5 -16 -6 -4 -8 -11 -5 -16 4 -5 -2
-9 -11 -9 -16 0 -16 1 1 20 10 11 14 20 9 20 -5 0 -15 -9 -21 -19 -10 -16 -9
-22 3 -32 13 -10 13 -14 -1 -29 -8 -9 -12 -20 -8 -25 5 -4 -1 -5 -11 -1 -16 5
-17 4 -6 -9 15 -18 0 -20 -20 -2 -12 10 -12 9 -3 -3 18 -26 21 -58 8 -77 -7
-10 -11 -26 -9 -36 1 -9 -1 -15 -4 -13 -4 2 -15 -2 -25 -9 -17 -13 -17 -14 4
-20 12 -4 17 -10 12 -14 -6 -3 -15 -16 -22 -29 -7 -12 -17 -20 -23 -16 -7 4
-8 3 -4 -5 4 -6 11 -9 16 -6 5 3 11 1 14 -4 4 -5 2 -13 -4 -16 -8 -5 -8 -11 0
-20 8 -9 6 -14 -5 -19 -9 -3 -13 -11 -9 -17 4 -8 3 -9 -4 -5 -19 11 -14 -5 5
-20 16 -12 15 -13 -9 -4 -26 9 -27 8 -16 -10 7 -10 16 -16 21 -13 5 3 4 -4 -2
-16 -13 -24 -23 -29 -15 -7 3 8 2 16 -3 19 -5 3 -9 -10 -9 -29 0 -39 3 -41 23
-16 16 19 7 -4 -10 -26 -8 -10 -13 -10 -25 0 -13 12 -14 10 -2 -9 12 -18 17
-20 29 -10 12 10 12 9 1 -10 -8 -12 -17 -20 -21 -17 -5 2 -6 -6 -3 -18 3 -13
7 -32 9 -43 1 -11 8 -19 14 -17 7 1 10 -2 6 -8 -3 -6 -10 -8 -15 -5 -4 3 -11
-1 -14 -7 -3 -7 -3 -1 -1 14 2 15 0 30 -4 32 -10 6 -8 -46 2 -61 5 -8 3 -13
-4 -13 -7 0 -9 -3 -6 -7 4 -3 2 -11 -3 -18 -7 -8 -5 -12 3 -12 8 0 14 6 15 14
1 7 3 20 4 28 2 23 17 18 15 -5 -1 -11 -5 -20 -10 -20 -4 0 -6 -4 -2 -9 3 -6
-3 -14 -12 -20 -13 -8 -14 -10 -3 -11 11 0 11 -3 2 -12 -16 -16 -15 -25 2 -31
10 -4 13 2 11 23 -2 21 1 27 12 23 8 -3 11 -9 6 -12 -14 -10 -9 -56 6 -53 7 1
10 -2 6 -8 -4 -6 -13 -5 -25 2 -15 10 -22 10 -32 0 -11 -11 -10 -12 3 -7 9 3
23 -3 35 -16 19 -22 19 -22 -2 -11 -16 9 -21 8 -21 -3 0 -8 4 -12 9 -9 11 7
10 -3 -3 -28 -8 -15 -8 -19 0 -14 6 4 14 0 17 -8 3 -9 11 -13 17 -9 6 3 7 1 3
-6 -6 -9 -11 -9 -24 1 -11 9 -14 10 -8 1 11 -19 15 -83 5 -83 -5 0 -9 -5 -9
-10 0 -6 5 -9 11 -8 11 3 18 -15 24 -62 1 -15 8 -24 16 -22 8 2 6 -5 -6 -19
l-20 -22 22 12 c27 14 44 14 20 0 -14 -8 -16 -14 -6 -25 10 -12 9 -13 -7 -8
-14 5 -16 4 -8 -5 6 -7 21 -13 33 -14 20 -1 31 -17 12 -17 -5 0 -8 -8 -6 -17
2 -10 4 -20 4 -23 1 -3 6 2 11 10 5 8 10 10 10 4 0 -18 -13 -24 -27 -12 -7 6
-16 8 -20 4 -3 -3 -1 -6 6 -6 7 0 9 -5 5 -12 -5 -7 -3 -8 6 -3 10 6 12 4 7 -8
-3 -10 -2 -17 4 -17 6 0 8 -9 4 -21 l-7 -22 23 21 c12 12 25 19 28 16 3 -4 0
-9 -7 -11 -7 -3 -17 -14 -24 -26 -10 -20 -10 -21 6 -8 9 8 19 11 23 7 3 -3 1
-6 -5 -6 -15 0 -16 -47 -1 -56 8 -4 7 -9 -2 -15 -10 -6 -10 -9 -2 -9 16 0 26
17 14 25 -14 8 -9 42 6 42 9 0 10 -4 2 -13 -12 -14 -3 -38 11 -29 5 3 12 0 16
-6 4 -8 3 -9 -4 -5 -15 9 -16 -6 -2 -20 7 -7 6 -11 -4 -11 -8 0 -12 5 -9 10 3
6 1 7 -5 4 -12 -8 -10 -32 3 -44 4 -4 5 -2 1 5 -4 7 -1 12 8 12 19 0 20 -5 4
-33 -10 -20 -10 -21 5 -8 20 16 22 8 6 -22 -12 -22 -11 -22 9 -4 15 14 22 15
28 6 5 -8 3 -10 -6 -4 -10 6 -12 4 -7 -8 3 -9 1 -18 -6 -21 -7 -2 -4 -5 6 -5
9 -1 17 3 17 7 0 5 7 9 16 9 14 0 14 -2 -2 -14 -23 -16 -27 -43 -8 -50 12 -4
12 -8 2 -22 -12 -14 -11 -15 5 -2 16 13 17 16 4 26 -12 9 -12 12 1 24 13 12
14 12 10 0 -3 -8 5 -23 16 -33 15 -14 17 -18 4 -13 -9 3 -19 0 -22 -8 -3 -10
2 -12 20 -9 25 5 33 -9 12 -22 -7 -4 -8 -3 -4 4 5 8 1 10 -10 5 -11 -4 -13 -8
-6 -11 7 -2 9 -9 5 -15 -4 -7 5 -4 19 5 26 17 27 17 23 -4 -3 -11 -7 -23 -11
-27 -4 -3 -4 2 -1 12 4 10 3 16 -2 12 -6 -3 -9 -14 -8 -25 1 -15 4 -17 15 -7
17 14 42 18 42 7 0 -5 -10 -12 -22 -16 -19 -6 -20 -7 -4 -16 13 -7 21 -5 30 8
10 13 15 14 21 4 5 -8 4 -11 -2 -7 -6 4 -13 0 -16 -8 -4 -8 2 -16 15 -20 16
-6 19 -13 16 -36 -3 -17 -1 -32 4 -35 5 -3 6 -10 2 -15 -3 -5 0 -8 8 -7 7 2
12 -3 10 -10 -1 -8 2 -11 7 -8 5 4 16 -1 24 -9 20 -19 25 -19 23 1 0 9 6 19
14 21 13 4 13 3 0 -6 -12 -8 -12 -13 -3 -22 10 -10 9 -17 -5 -33 -16 -20 -16
-20 1 -7 9 7 17 10 17 5 0 -5 5 -2 10 6 7 11 10 11 10 2 0 -7 5 -10 10 -7 6 4
9 3 8 -2 -1 -4 4 -18 12 -30 11 -18 17 -20 30 -10 12 9 13 9 3 -3 -10 -11 -10
-17 1 -29 14 -16 16 -20 16 -41 0 -6 6 -9 13 -8 6 2 11 -2 10 -9 -2 -7 8 -10
27 -8 30 4 40 -8 18 -21 -6 -4 -8 -3 -5 4 5 6 -1 8 -15 4 -21 -5 -21 -6 -2
-12 10 -4 28 -3 39 3 l20 10 -20 -24 c-11 -13 -13 -19 -5 -13 18 13 52 15 44
2 -3 -5 -9 -6 -14 -3 -5 3 -11 1 -15 -4 -3 -6 5 -8 20 -5 23 4 36 -10 15 -18
-6 -2 -6 -8 0 -18 8 -13 10 -13 10 2 0 9 4 19 9 23 6 3 8 -3 6 -14 -2 -14 1
-18 10 -15 8 3 13 11 11 17 -1 7 -1 9 1 4 3 -4 10 -4 16 -1 8 5 8 2 0 -7 -17
-18 -17 -34 0 -20 11 8 13 6 13 -10 -1 -12 9 -28 22 -36 20 -14 22 -14 16 0
-3 9 -11 15 -16 14 -6 -1 -13 5 -15 13 -4 12 -3 12 5 2 5 -8 11 -12 13 -11 2
2 16 -5 31 -15 15 -10 33 -14 39 -10 8 4 9 3 5 -4 -4 -7 -2 -12 3 -12 6 0 11
-5 11 -10 0 -6 -10 -4 -23 5 -20 13 -24 13 -24 0 0 -8 4 -12 9 -9 5 3 18 -2
28 -11 14 -12 20 -13 26 -4 5 8 3 10 -6 4 -9 -6 -11 -4 -5 4 5 9 10 10 18 2 7
-7 6 -16 -3 -28 -12 -15 -12 -16 0 -5 16 13 31 16 29 4 -1 -4 -1 -14 0 -22 1
-12 3 -13 10 -1 5 7 14 10 20 7 6 -4 9 -12 6 -17 -4 -5 -1 -9 4 -9 14 0 14 13
-1 28 -9 9 -9 15 1 25 10 10 11 8 5 -7 -6 -15 -4 -17 6 -11 8 5 11 4 7 -2 -4
-6 5 -21 19 -34 22 -21 24 -21 18 -4 -7 18 -6 18 9 7 8 -8 15 -19 13 -25 -1
-7 -1 -9 1 -5 2 4 11 4 19 1 7 -3 11 -9 8 -14 -3 -5 2 -6 11 -2 14 5 14 8 3
15 -10 8 -9 9 4 5 9 -3 19 -3 21 1 3 6 -1 -12 -6 -28 -1 -3 3 -5 8 -5 5 0 9 3
8 8 -5 12 9 8 29 -9 16 -16 18 -16 24 0 3 9 10 16 15 16 5 0 2 -12 -8 -26
l-17 -27 24 14 c14 8 28 19 32 24 5 6 8 6 8 -2 0 -7 -8 -17 -17 -22 -17 -10
-17 -10 0 -11 10 0 20 7 23 15 8 19 21 19 21 0 0 -8 -4 -12 -9 -9 -4 3 -8 0
-8 -5 0 -6 5 -11 10 -11 21 0 26 -1 49 -17 13 -8 20 -10 17 -4 -4 7 1 11 13
11 10 0 21 -6 24 -12 3 -9 11 -7 28 7 l23 20 -19 -30 c-14 -22 -15 -27 -3 -17
9 7 18 9 20 5 3 -4 3 -2 2 5 -4 14 13 17 18 2 4 -12 41 -22 85 -22 20 0 30 -4
26 -11 -3 -6 -1 -7 5 -3 6 4 9 14 6 24 -3 9 1 7 8 -6 14 -22 29 -21 24 1 -2 7
-1 9 1 4 3 -4 10 -4 15 -1 6 4 8 2 5 -3 -4 -6 4 -10 18 -10 14 0 22 4 18 10
-3 6 -1 7 6 3 6 -4 9 -11 6 -16 -3 -4 9 -10 26 -12 16 -3 33 0 36 5 3 6 1 7
-5 3 -6 -3 -13 -3 -16 2 -2 4 9 8 25 7 34 0 35 -3 12 -22 -16 -12 -15 -13 7
-2 14 7 26 12 28 11 8 -6 32 -1 28 6 -2 4 6 8 19 8 14 0 22 -2 20 -4 -5 -5 21
-32 31 -32 3 0 1 6 -5 14 -9 11 -8 15 4 20 9 3 13 2 10 -4 -3 -6 1 -10 10 -10
10 0 13 5 9 12 -4 7 -4 10 1 6 4 -4 15 -2 24 5 14 10 14 10 3 -4 -10 -14 -10
-18 3 -22 8 -4 14 -1 12 5 -1 6 4 13 12 16 8 2 11 0 7 -6 -3 -5 1 -12 9 -16
19 -7 32 14 15 24 -11 7 3 7 73 1 5 -1 5 -6 1 -13 -4 -7 -3 -8 4 -4 7 4 12 15
12 24 0 15 2 15 10 2 9 -13 10 -13 10 0 0 9 3 11 8 5 9 -13 27 -13 39 -1 4 5
3 6 -4 2 -6 -3 -14 -3 -17 2 -2 4 5 8 17 9 12 1 32 3 45 6 12 3 22 2 22 -2 0
-4 7 -8 15 -8 11 0 12 4 4 14 -14 16 3 17 19 1 8 -8 12 -8 12 -1 0 6 7 13 14
16 9 4 14 1 12 -6 -1 -7 -1 -9 1 -4 3 4 9 5 13 2 5 -3 12 0 16 6 4 8 3 9 -4 5
-7 -4 -12 -2 -12 4 0 7 7 10 15 7 8 -4 17 -1 21 5 5 7 12 5 22 -8 13 -18 14
-18 7 3 -5 18 -3 22 9 17 9 -3 16 -2 16 4 0 6 11 9 25 8 15 -2 22 1 18 7 -4 6
0 8 10 4 10 -4 17 -2 17 4 0 7 11 9 24 7 16 -3 23 -1 19 7 -4 11 40 31 60 27
4 -1 7 3 7 9 0 8 5 7 15 -1 13 -11 14 -10 8 5 -5 15 -3 17 11 12 10 -4 15 -3
11 3 -6 9 8 14 28 11 4 0 7 4 7 11 0 6 3 9 6 5 3 -3 15 3 27 14 19 17 38 24
59 20 5 0 7 5 5 12 -1 6 5 12 13 12 8 0 17 6 20 13 5 12 161 -87 405 -256 44
-31 75 -50 69 -42 -6 8 -66 86 -135 173 -68 87 -137 177 -153 199 l-28 40 31
29 c18 16 36 29 42 29 5 0 9 4 9 8 0 4 35 44 78 87 42 44 93 101 111 128 19
26 38 47 43 47 5 0 7 4 4 9 -4 5 -3 11 1 13 10 4 83 113 103 153 8 17 17 32
20 35 31 27 154 355 176 465 32 161 39 232 39 390 0 151 -8 238 -31 343 -8 37
-17 78 -20 92 -6 29 -47 151 -65 195 -7 17 -13 36 -15 44 -1 8 -9 18 -16 22
-7 5 -9 9 -4 9 5 0 3 7 -4 15 -7 8 -9 15 -5 15 4 0 3 6 -2 13 -6 6 -24 37 -40
67 -41 76 -57 104 -63 110 -14 14 -70 102 -70 109 0 5 -3 11 -8 13 -4 2 -25
25 -47 53 -22 27 -56 66 -75 86 -19 20 -47 50 -61 65 -23 25 -63 61 -146 131
-54 46 -64 53 -69 53 -2 0 -14 8 -25 18 -10 11 -32 25 -47 33 -15 8 -29 16
-32 19 -6 7 -103 64 -110 65 -3 0 -16 8 -30 17 -14 9 -35 19 -47 23 -13 3 -23
10 -23 14 0 4 -8 7 -18 8 -10 1 -43 13 -74 27 -31 14 -65 27 -75 29 -10 2 -25
7 -33 10 -84 32 -281 74 -394 84 -88 8 -314 7 -381 -2 -145 -19 -339 -69 -435
-112 -99 -43 -172 -81 -241 -124 l-76 -47 -34 26 c-19 15 -79 62 -134 106 -55
43 -116 89 -135 101 -19 13 -52 39 -73 59 -20 20 -45 37 -55 38 -57 5 -70 3
-97 -16z m-248 -2110 c-3 -7 0 -19 6 -25 6 -6 8 -11 4 -11 -4 0 -10 0 -14 0
-4 0 -8 11 -9 25 0 14 3 25 9 25 5 0 7 -6 4 -14z m15 -71 c-8 -16 -9 -16 -15
-1 -4 10 -3 15 3 11 6 -3 10 -1 10 6 0 7 3 10 6 6 3 -3 2 -13 -4 -22z m22 -43
c2 -4 -4 -8 -14 -8 -10 0 -16 4 -14 8 3 4 9 8 14 8 5 0 11 -4 14 -8z m13 -58
c-3 -3 -12 -4 -19 -1 -8 3 -5 6 6 6 11 1 17 -2 13 -5z m28 -124 c3 -5 1 -10
-4 -10 -6 0 -11 5 -11 10 0 6 2 10 4 10 3 0 8 -4 11 -10z m289 -542 c-3 -4 -1
-8 5 -8 5 0 12 6 15 13 3 6 3 1 0 -12 -5 -20 -3 -23 12 -17 15 6 16 5 7 -5
-10 -10 -18 -8 -37 10 -14 13 -22 30 -19 38 5 12 7 12 14 2 4 -7 5 -17 3 -21z
m187 -165 c13 -16 12 -17 -3 -4 -10 7 -18 15 -18 17 0 8 8 3 21 -13z m19 -33
c8 -5 11 -10 5 -10 -5 0 -17 5 -25 10 -8 5 -10 10 -5 10 6 0 17 -5 25 -10z
m40 -14 c0 -2 -7 -7 -16 -10 -8 -3 -12 -2 -9 4 6 10 25 14 25 6z m312 -248
c-8 -8 -9 -4 -5 13 4 13 8 18 11 10 2 -7 -1 -18 -6 -23z m65 -20 c-3 -8 -6 -5
-6 6 -1 11 2 17 5 13 3 -3 4 -12 1 -19z m73 -22 c0 -3 -4 -8 -10 -11 -5 -3
-10 -1 -10 4 0 6 5 11 10 11 6 0 10 -2 10 -4z m75 -26 c3 -6 -1 -7 -9 -4 -18
7 -21 14 -7 14 6 0 13 -4 16 -10z m128 -53 c3 -8 -1 -14 -8 -14 -7 0 -11 6 -8
14 6 16 10 16 16 0z m37 -11 c0 -3 -4 -8 -10 -11 -5 -3 -10 -1 -10 4 0 6 5 11
10 11 6 0 10 -2 10 -4z m48 -21 c-3 -3 -9 2 -12 12 -6 14 -5 15 5 6 7 -7 10
-15 7 -18z m82 -12 c0 4 9 3 19 -3 13 -7 21 -7 24 0 3 6 4 5 3 -2 -2 -7 -10
-11 -17 -9 -8 2 -20 4 -28 5 -7 2 -18 11 -23 22 -9 18 -9 18 6 0 9 -11 16 -17
16 -13z"/>
<path d="M206 2549 c4 -6 0 -15 -7 -20 -8 -5 -9 -9 -3 -9 6 0 17 6 23 14 9 11
8 15 -4 20 -10 4 -14 2 -9 -5z"/>
<path d="M165 2430 c-3 -5 -3 -10 2 -10 4 0 1 -5 -7 -11 -10 -7 -11 -9 -2 -7
8 2 13 7 12 12 -1 5 4 13 12 17 9 6 9 9 1 9 -6 0 -15 -4 -18 -10z"/>
<path d="M140 2380 c-8 -5 -10 -10 -5 -10 6 0 17 5 25 10 8 5 11 10 5 10 -5 0
-17 -5 -25 -10z"/>
<path d="M125 2320 c-16 -7 -17 -9 -3 -9 9 -1 20 4 23 9 7 11 7 11 -20 0z"/>
<path d="M120 2250 c-9 -6 -10 -10 -3 -10 6 0 15 5 18 10 8 12 4 12 -15 0z"/>
<path d="M107 2213 c3 -7 9 -10 14 -7 14 8 11 21 -5 21 -8 0 -12 -6 -9 -14z"/>
<path d="M415 820 c3 -5 13 -10 21 -10 8 0 12 -4 9 -10 -3 -5 -1 -10 4 -10 18
0 12 19 -8 30 -25 13 -34 13 -26 0z"/>
<path d="M572 651 c-11 -6 -10 -9 3 -15 9 -3 13 -11 10 -16 -4 -6 -3 -10 2 -9
20 3 34 -2 28 -11 -4 -6 -1 -9 7 -8 7 2 12 -3 11 -9 -2 -7 2 -13 7 -13 17 0
11 13 -23 53 -22 26 -36 34 -45 28z m29 -18 c13 -16 12 -17 -3 -4 -10 7 -18
15 -18 17 0 8 8 3 21 -13z"/>
<path d="M2270 136 c0 -2 8 -10 18 -17 15 -13 16 -12 3 4 -13 16 -21 21 -21
13z"/>
<path d="M1905 90 c-3 -5 -1 -10 5 -10 6 0 8 -5 4 -12 -4 -7 -3 -8 4 -4 6 4 9
13 5 21 -6 18 -10 19 -18 5z"/>
</g>
</svg>
